<svg width="12" height="13" viewBox="0 0 12 13" fill="none" xmlns="http://www.w3.org/2000/svg">
<path fill-rule="evenodd" clip-rule="evenodd" d="M10.4757 6.7256C10.6121 6.86199 10.6121 7.08312 10.4757 7.21951L5.86585 11.8294C5.27638 12.4188 4.47688 12.75 3.64324 12.75C2.8096 12.75 2.01011 12.4188 1.42064 11.8294C0.831163 11.2399 0.5 10.4404 0.5 9.60676C0.5 8.77312 0.831163 7.97362 1.42064 7.38415L7.42967 1.37511C8.28135 0.523434 9.66742 0.549529 10.5254 1.4075C11.3834 2.26547 11.4095 3.65155 10.5578 4.50323L4.63083 10.4302C4.39068 10.6703 4.06496 10.8053 3.72533 10.8053C3.3857 10.8053 3.05998 10.6703 2.81983 10.4302C2.57967 10.19 2.44476 9.86432 2.44476 9.52469C2.44476 9.18506 2.57967 8.85934 2.81983 8.61918L7.42968 4.00933C7.56607 3.87294 7.78721 3.87294 7.9236 4.00933C8.05999 4.14572 8.05999 4.36685 7.9236 4.50324L3.31374 9.1131C3.20458 9.22226 3.14326 9.37031 3.14326 9.52468C3.14326 9.67906 3.20458 9.82711 3.31374 9.93627C3.4229 10.0454 3.57095 10.1068 3.72533 10.1068C3.8797 10.1068 4.02776 10.0454 4.13692 9.93627L10.0639 4.00932C10.6312 3.44194 10.6283 2.49827 10.0315 1.90141C9.43463 1.30456 8.49096 1.30165 7.92358 1.86903L1.91455 7.87806C1.45607 8.33654 1.1985 8.95837 1.1985 9.60676C1.1985 10.2551 1.45607 10.877 1.91455 11.3355C2.37303 11.7939 2.99486 12.0515 3.64324 12.0515C4.29163 12.0515 4.91346 11.7939 5.37194 11.3355L9.98179 6.7256C10.1182 6.58921 10.3393 6.58921 10.4757 6.7256Z" fill="#9E9E9E"/>
</svg>
