<svg width="26" height="27" viewBox="0 0 26 27" fill="none" xmlns="http://www.w3.org/2000/svg">
<g clip-path="url(#clip0_41_1255)" filter="url(#filter0_d_41_1255)">
<path fill-rule="evenodd" clip-rule="evenodd" d="M4.1875 12C4.1875 11.6893 4.43934 11.4375 4.75 11.4375H21.25C21.5607 11.4375 21.8125 11.6893 21.8125 12C21.8125 12.3107 21.5607 12.5625 21.25 12.5625H4.75C4.43934 12.5625 4.1875 12.3107 4.1875 12Z" fill="#241E17"/>
<path fill-rule="evenodd" clip-rule="evenodd" d="M4.1875 6C4.1875 5.68934 4.43934 5.4375 4.75 5.4375H21.25C21.5607 5.4375 21.8125 5.68934 21.8125 6C21.8125 6.31066 21.5607 6.5625 21.25 6.5625H4.75C4.43934 6.5625 4.1875 6.31066 4.1875 6Z" fill="#241E17"/>
<path fill-rule="evenodd" clip-rule="evenodd" d="M4.1875 18C4.1875 17.6893 4.43934 17.4375 4.75 17.4375H21.25C21.5607 17.4375 21.8125 17.6893 21.8125 18C21.8125 18.3107 21.5607 18.5625 21.25 18.5625H4.75C4.43934 18.5625 4.1875 18.3107 4.1875 18Z" fill="#241E17"/>
</g>
<defs>
<filter id="filter0_d_41_1255" x="-3" y="0" width="32" height="32" filterUnits="userSpaceOnUse" color-interpolation-filters="sRGB">
<feFlood flood-opacity="0" result="BackgroundImageFix"/>
<feColorMatrix in="SourceAlpha" type="matrix" values="0 0 0 0 0 0 0 0 0 0 0 0 0 0 0 0 0 0 127 0" result="hardAlpha"/>
<feOffset dy="4"/>
<feGaussianBlur stdDeviation="2"/>
<feComposite in2="hardAlpha" operator="out"/>
<feColorMatrix type="matrix" values="0 0 0 0 0 0 0 0 0 0 0 0 0 0 0 0 0 0 0.25 0"/>
<feBlend mode="normal" in2="BackgroundImageFix" result="effect1_dropShadow_41_1255"/>
<feBlend mode="normal" in="SourceGraphic" in2="effect1_dropShadow_41_1255" result="shape"/>
</filter>
<clipPath id="clip0_41_1255">
<rect width="24" height="24" fill="white" transform="translate(1)"/>
</clipPath>
</defs>
</svg>
