<svg width="24" height="24" viewBox="0 0 24 24" fill="none" xmlns="http://www.w3.org/2000/svg">
<path fill-rule="evenodd" clip-rule="evenodd" d="M10.875 4.3125C7.25063 4.3125 4.3125 7.25063 4.3125 10.875C4.3125 14.4994 7.25063 17.4375 10.875 17.4375C14.4994 17.4375 17.4375 14.4994 17.4375 10.875C17.4375 7.25063 14.4994 4.3125 10.875 4.3125ZM3.1875 10.875C3.1875 6.62931 6.62931 3.1875 10.875 3.1875C15.1207 3.1875 18.5625 6.62931 18.5625 10.875C18.5625 15.1207 15.1207 18.5625 10.875 18.5625C6.62931 18.5625 3.1875 15.1207 3.1875 10.875Z" fill="#241E17"/>
<path fill-rule="evenodd" clip-rule="evenodd" d="M16.0453 16.046C16.265 15.8264 16.6211 15.8264 16.8408 16.046L21.3971 20.6023C21.6168 20.822 21.6168 21.1782 21.3971 21.3978C21.1774 21.6175 20.8213 21.6175 20.6016 21.3978L16.0453 16.8415C15.8256 16.6219 15.8256 16.2657 16.0453 16.046Z" fill="#241E17"/>
</svg>
